<?xml version="1.0" encoding="UTF-8"?><!DOCTYPE svg PUBLIC "-//W3C//DTD SVG 1.1//EN" "http://www.w3.org/Graphics/SVG/1.1/DTD/svg11.dtd"><svg xmlns="http://www.w3.org/2000/svg"><symbol id="email" viewBox="0 0 17 17"><path fill-rule="evenodd" clip-rule="evenodd" fill="#FFF" d="M8.052 12.454l-2.7-2.521a.575.575 0 0 0-.771 0L0 14.201v.581c0 .542.475.983 1.055.983H15.82c.58 0 1.055-.441 1.055-.983v-.581l-4.581-4.269a.575.575 0 0 0-.771 0l-2.7 2.521c-.213.2-.558.2-.771.001zm5.739-3.918l2.699 2.521c.212.199.385.123.385-.168V5.465c0-.292-.173-.367-.385-.168l-2.699 2.521a.482.482 0 0 0 0 .718zM1.055 1C.475 1 0 1.443 0 1.984v.177l8.011 7.504a.569.569 0 0 0 .768 0l8.096-7.593v-.088c0-.541-.475-.984-1.055-.984H1.055zM0 5.465v5.424c0 .291.173.367.385.168l2.699-2.521a.483.483 0 0 0 0-.719L.385 5.297C.173 5.098 0 5.173 0 5.465z"/></symbol><symbol id="facebook" viewBox="0 0 17 17"><path fill="#FFF" d="M14.875 0H2.125A2.132 2.132 0 0 0 0 2.125v12.75A2.13 2.13 0 0 0 2.125 17h6.449v-6.096H6.537V8.249h2.037v-1.33c0-2.051 1.513-3.657 3.446-3.657h1.877V6.26h-1.679c-.439 0-.569.252-.569.601v1.388h2.248v2.655h-2.248V17h3.226A2.13 2.13 0 0 0 17 14.875V2.125A2.13 2.13 0 0 0 14.875 0z"/></symbol><symbol id="twitter" viewBox="0 0 18 18"><path fill="#FFF" d="M18 3.731a7.403 7.403 0 0 1-2.121.581 3.708 3.708 0 0 0 1.623-2.042 7.364 7.364 0 0 1-2.344.895A3.692 3.692 0 0 0 12.462 2a3.692 3.692 0 0 0-3.597 4.534 10.49 10.49 0 0 1-7.612-3.858 3.69 3.69 0 0 0 1.143 4.929 3.685 3.685 0 0 1-1.673-.461v.046a3.695 3.695 0 0 0 2.962 3.621 3.714 3.714 0 0 1-1.667.063 3.695 3.695 0 0 0 3.449 2.565 7.401 7.401 0 0 1-5.466 1.528 10.449 10.449 0 0 0 5.661 1.659c6.792 0 10.507-5.627 10.507-10.506 0-.161-.004-.321-.012-.479A7.456 7.456 0 0 0 18 3.731z"/></symbol></svg>